<svg width="20" height="24" viewBox="0 0 20 24" fill="currentColor" xmlns="http://www.w3.org/2000/svg">
    <path
        fill="currentColor"
        fill-rule="evenodd"
        clip-rule="evenodd"
        d="M3.11515 0.404377C7.68969 -0.134792 12.3103 -0.134792 16.8849 0.404377C18.6994 0.618503 20 2.20106 20 4.01006V23.0758C19.9998 23.233 19.96 23.3875 19.8845 23.5247C19.809 23.6619 19.7003 23.7773 19.5686 23.8599C19.4368 23.9425 19.2865 23.9895 19.1319 23.9966C18.9772 24.0037 18.8234 23.9706 18.6849 23.9004L10 19.4935L1.31515 23.9028C1.17646 23.9731 1.02237 24.0062 0.867518 23.999C0.712666 23.9918 0.562199 23.9446 0.430415 23.8617C0.29863 23.7788 0.189906 23.6631 0.114573 23.5256C0.0392392 23.388 -0.000200746 23.2332 7.68346e-07 23.0758V4.01006C7.68346e-07 2.20106 1.30061 0.618503 3.11515 0.404377Z"
    />
</svg>
