<svg width="28" height="26" viewBox="0 0 28 26" fill="currentColor" xmlns="http://www.w3.org/2000/svg">
    <path fill="currentColor" d="M13.3374 2.80127C13.5132 2.62571 13.7515 2.52709 13.9999 2.52709C14.2484 2.52709 14.4866 2.62571 14.6624 2.80127L25.5249 13.6638C25.6115 13.7533 25.7149 13.8246 25.8293 13.8737C25.9437 13.9228 26.0668 13.9486 26.1913 13.9496C26.3157 13.9506 26.4392 13.9269 26.5544 13.8797C26.6696 13.8325 26.7742 13.7628 26.8622 13.6748C26.9502 13.5867 27.0197 13.482 27.0668 13.3667C27.1139 13.2515 27.1376 13.128 27.1364 13.0036C27.1353 12.8791 27.1094 12.7561 27.0602 12.6417C27.011 12.5274 26.9395 12.424 26.8499 12.3375L15.9887 1.47502C15.7275 1.21385 15.4175 1.00668 15.0762 0.865337C14.735 0.723994 14.3693 0.651245 13.9999 0.651245C13.6306 0.651245 13.2649 0.723994 12.9236 0.865337C12.5824 1.00668 12.2723 1.21385 12.0112 1.47502L1.14868 12.3375C1.05918 12.424 0.987808 12.5275 0.938729 12.6419C0.889651 12.7563 0.863847 12.8794 0.862825 13.0038C0.861802 13.1283 0.885581 13.2518 0.932773 13.367C0.979966 13.4821 1.04963 13.5868 1.13769 13.6748C1.22576 13.7627 1.33046 13.8323 1.4457 13.8794C1.56094 13.9265 1.6844 13.9501 1.80888 13.949C1.93336 13.9479 2.05636 13.9219 2.17072 13.8728C2.28507 13.8236 2.38849 13.7521 2.47493 13.6625L13.3374 2.80127Z"/>
    <path fill="currentColor" d="M14 4.79004L24.1987 14.9888C24.2362 15.0263 24.2738 15.0613 24.3125 15.0963V22.8438C24.3125 24.1375 23.2625 25.1875 21.9688 25.1875H17.75C17.5014 25.1875 17.2629 25.0888 17.0871 24.913C16.9113 24.7371 16.8125 24.4987 16.8125 24.25V18.625C16.8125 18.3764 16.7137 18.1379 16.5379 17.9621C16.3621 17.7863 16.1236 17.6875 15.875 17.6875H12.125C11.8764 17.6875 11.6379 17.7863 11.4621 17.9621C11.2863 18.1379 11.1875 18.3764 11.1875 18.625V24.25C11.1875 24.4987 11.0887 24.7371 10.9129 24.913C10.7371 25.0888 10.4986 25.1875 10.25 25.1875H6.03125C5.40965 25.1875 4.81351 24.9406 4.37397 24.5011C3.93443 24.0615 3.6875 23.4654 3.6875 22.8438V15.0963C3.72639 15.0615 3.76432 15.0257 3.80125 14.9888L14 4.79004Z"/>
</svg>
