<svg width="23" height="22" viewBox="0 0 23 22" fill="currentColor" xmlns="http://www.w3.org/2000/svg">
    <path
        fill="currentColor"
        fill-rule="evenodd"
        clip-rule="evenodd"
        d="M0 1.375C0 1.01033 0.100967 0.660591 0.280689 0.402728C0.460412 0.144865 0.704168 0 0.958333 0H22.0417C22.2958 0 22.5396 0.144865 22.7193 0.402728C22.899 0.660591 23 1.01033 23 1.375C23 1.73967 22.899 2.08941 22.7193 2.34727C22.5396 2.60513 22.2958 2.75 22.0417 2.75H0.958333C0.704168 2.75 0.460412 2.60513 0.280689 2.34727C0.100967 2.08941 0 1.73967 0 1.375ZM0 11C0 10.6353 0.100967 10.2856 0.280689 10.0277C0.460412 9.76987 0.704168 9.625 0.958333 9.625H22.0417C22.2958 9.625 22.5396 9.76987 22.7193 10.0277C22.899 10.2856 23 10.6353 23 11C23 11.3647 22.899 11.7144 22.7193 11.9723C22.5396 12.2301 22.2958 12.375 22.0417 12.375H0.958333C0.704168 12.375 0.460412 12.2301 0.280689 11.9723C0.100967 11.7144 0 11.3647 0 11ZM0 20.625C0 20.2603 0.100967 19.9106 0.280689 19.6527C0.460412 19.3949 0.704168 19.25 0.958333 19.25H22.0417C22.2958 19.25 22.5396 19.3949 22.7193 19.6527C22.899 19.9106 23 20.2603 23 20.625C23 20.9897 22.899 21.3394 22.7193 21.5973C22.5396 21.8551 22.2958 22 22.0417 22H0.958333C0.704168 22 0.460412 21.8551 0.280689 21.5973C0.100967 21.3394 0 20.9897 0 20.625Z"
    />
</svg>
