<svg width="35" height="43" viewBox="0 0 35 43" fill="none" xmlns="http://www.w3.org/2000/svg">
    <path
        fill="currentColor"
        fill-rule="evenodd"
        clip-rule="evenodd"
        d="M33.9864 0.302054C34.1717 0.441988 34.322 0.623028 34.4254 0.830915C34.5289 1.0388 34.5826 1.26786 34.5824 1.50005V29.6061C34.5822 30.9098 34.1573 32.1779 33.3721 33.2186C32.5868 34.2593 31.484 35.016 30.2304 35.3741L27.5904 36.1281C26.9428 36.3224 26.263 36.3862 25.5904 36.3158C24.9179 36.2453 24.2661 36.0419 23.6728 35.7175C23.0795 35.3931 22.5566 34.954 22.1343 34.4258C21.7121 33.8977 21.399 33.2909 21.2132 32.6407C21.0274 31.9905 20.9725 31.3099 21.0519 30.6384C21.1312 29.9669 21.3432 29.3178 21.6754 28.7288C22.0077 28.1399 22.4536 27.6228 22.9873 27.2076C23.521 26.7923 24.1319 26.4873 24.7844 26.3101L29.4064 24.9901C30.0332 24.811 30.5846 24.4327 30.9773 23.9123C31.3699 23.392 31.5823 22.7579 31.5824 22.1061V10.9881L13.5824 16.1321V35.6061C13.5822 36.9098 13.1573 38.1779 12.3721 39.2186C11.5868 40.2593 10.484 41.016 9.23044 41.3741L6.59044 42.1281C5.94197 42.3251 5.26076 42.3911 4.58653 42.3221C3.91231 42.2532 3.25855 42.0507 2.66339 41.7264C2.06822 41.4022 1.54356 40.9628 1.12 40.4337C0.696427 39.9046 0.382429 39.2965 0.196308 38.6448C0.0101875 37.9931 -0.0443309 37.3109 0.0359321 36.6379C0.116195 35.9649 0.329633 35.3147 0.663801 34.725C0.997969 34.1354 1.44618 33.6182 1.9823 33.2036C2.51842 32.7889 3.13172 32.4852 3.78644 32.3101L8.40644 30.9901C9.03323 30.811 9.58464 30.4327 9.97725 29.9123C10.3699 29.392 10.5823 28.7579 10.5824 28.1061V7.50005C10.5825 7.17413 10.6887 6.85709 10.885 6.59691C11.0813 6.33674 11.357 6.14757 11.6704 6.05805L32.6704 0.0580538C32.8937 -0.00593702 33.1288 -0.0172055 33.3572 0.0251365C33.5855 0.0674785 33.801 0.162274 33.9864 0.302054Z"
    />
</svg>
