<svg width="27" height="23" viewBox="0 0 27 23" fill="currentColor" xmlns="http://www.w3.org/2000/svg">
    <path
        fill="currentColor"
        d="M12.4615 1.99928C10.292 0.69039 7.76875 -0.00358033 5.19231 1.38909e-05C3.65953 -0.00146183 2.1377 0.243316 0.692308 0.723817C0.489865 0.791232 0.314587 0.916096 0.190604 1.08122C0.0666211 1.24634 3.05719e-05 1.44361 0 1.64585V20.23C2.36509e-05 20.3864 0.0399003 20.5406 0.116282 20.6796C0.192664 20.8185 0.303322 20.9382 0.438966 21.0285C0.57461 21.1188 0.731282 21.1772 0.895828 21.1987C1.06038 21.2202 1.22799 21.2042 1.38462 21.152C2.60769 20.7457 3.89539 20.5389 5.19231 20.5404C7.95462 20.5404 10.4857 21.4624 12.4615 23V1.99928ZM14.5385 23C16.5827 21.4065 19.1542 20.5364 21.8077 20.5404C23.1452 20.5404 24.4246 20.7569 25.6154 21.1533C25.7721 21.2055 25.9399 21.2215 26.1045 21.1999C26.2692 21.1784 26.4259 21.1199 26.5616 21.0294C26.6973 20.939 26.8079 20.8191 26.8842 20.68C26.9605 20.5409 27.0002 20.3866 27 20.23V1.64585C27 1.44361 26.9334 1.24634 26.8094 1.08122C26.6854 0.916096 26.5101 0.791232 26.3077 0.723817C24.8623 0.243316 23.3405 -0.00146183 21.8077 1.38909e-05C19.2313 -0.00358033 16.708 0.69039 14.5385 1.99928V23Z"
    />
</svg>
