<svg width="20" height="20" viewBox="0 0 20 20" fill="currentColor" xmlns="http://www.w3.org/2000/svg">
    <path
        fill="currentColor"
        fill-rule="evenodd"
        clip-rule="evenodd"
        d="M9.07793 0.25C8.16093 0.25 7.37893 0.913 7.22793 1.817L7.04993 2.889C7.02993 3.009 6.93493 3.149 6.75293 3.237C6.41028 3.40171 6.08067 3.59226 5.76693 3.807C5.60093 3.922 5.43293 3.933 5.31693 3.89L4.29993 3.508C3.88418 3.35224 3.42663 3.34906 3.00875 3.49904C2.59087 3.64901 2.23976 3.94241 2.01793 4.327L1.09593 5.924C0.874024 6.30836 0.795649 6.75897 0.874752 7.19569C0.953855 7.6324 1.18531 8.0269 1.52793 8.309L2.36793 9.001C2.46293 9.079 2.53793 9.23 2.52193 9.431C2.49344 9.81013 2.49344 10.1909 2.52193 10.57C2.53693 10.77 2.46293 10.922 2.36893 11L1.52793 11.692C1.18531 11.9741 0.953855 12.3686 0.874752 12.8053C0.795649 13.242 0.874024 13.6926 1.09593 14.077L2.01793 15.674C2.23992 16.0584 2.59109 16.3516 3.00896 16.5014C3.42683 16.6512 3.88429 16.6478 4.29993 16.492L5.31893 16.11C5.43393 16.067 5.60193 16.079 5.76893 16.192C6.08093 16.406 6.40993 16.597 6.75393 16.762C6.93593 16.85 7.03093 16.99 7.05093 17.112L7.22893 18.183C7.37993 19.087 8.16193 19.75 9.07893 19.75H10.9229C11.8389 19.75 12.6219 19.087 12.7729 18.183L12.9509 17.111C12.9709 16.991 13.0649 16.851 13.2479 16.762C13.5919 16.597 13.9209 16.406 14.2329 16.192C14.3999 16.078 14.5679 16.067 14.6829 16.11L15.7029 16.492C16.1184 16.6472 16.5755 16.6501 16.993 16.5002C17.4104 16.3502 17.7612 16.0571 17.9829 15.673L18.9059 14.076C19.1278 13.6916 19.2062 13.241 19.1271 12.8043C19.048 12.3676 18.8166 11.9731 18.4739 11.691L17.6339 10.999C17.5389 10.921 17.4639 10.77 17.4799 10.569C17.5084 10.1899 17.5084 9.80913 17.4799 9.43C17.4639 9.23 17.5389 9.078 17.6329 9L18.4729 8.308C19.1809 7.726 19.3639 6.718 18.9059 5.923L17.9839 4.326C17.7619 3.94159 17.4108 3.6484 16.9929 3.49861C16.575 3.34883 16.1176 3.35215 15.7019 3.508L14.6819 3.89C14.5679 3.933 14.3999 3.921 14.2329 3.807C13.9195 3.5923 13.5902 3.40175 13.2479 3.237C13.0649 3.15 12.9709 3.01 12.9509 2.889L12.7719 1.817C12.699 1.37906 12.473 0.981216 12.1343 0.694267C11.7955 0.407318 11.3659 0.249889 10.9219 0.25H9.07893H9.07793ZM9.99993 13.75C10.9945 13.75 11.9483 13.3549 12.6516 12.6517C13.3548 11.9484 13.7499 10.9946 13.7499 10C13.7499 9.00544 13.3548 8.05161 12.6516 7.34835C11.9483 6.64509 10.9945 6.25 9.99993 6.25C9.00537 6.25 8.05155 6.64509 7.34828 7.34835C6.64502 8.05161 6.24993 9.00544 6.24993 10C6.24993 10.9946 6.64502 11.9484 7.34828 12.6517C8.05155 13.3549 9.00537 13.75 9.99993 13.75Z"
    />
</svg>
